#!OML:ASF H:\Pregnant\Project 1\Capture day 1\Session 1\femalepreg.ASF
:FULLY-SPECIFIED
:DEGREES
1191
root 6.18175 11.3349 21.9996 30.4177 -72.84 1.95742
lowerback 14.8481 1.65601 -3.10365
upperback -4.65503 1.74205 1.13189
thorax -13.722 1.13869 2.56093
lowerneck -32.393 13.6183 8.91919
upperneck 0.86974 15.253 -11.0151
head 6.55347 6.26688 -2.79974
rclavicle -9.93923e-015 -5.96354e-015
rhumerus 2.43552 27.654 -82.0619
rradius 40.6971
rwrist 0.537135
rhand -17.7688 -18.4031
rfingers 7.12502
rthumb 8.49343 -48.2123
lclavicle -9.93923e-015 -5.96354e-015
lhumerus 2.46922 -20.3536 77.6813
lradius 54.1792
lwrist 36.8309
lhand -27.3427 -3.78415
lfingers 7.12502
lthumb -0.751098 26.1943
rfemur -95.4945 -6.3999 25.1284
rtibia 102.036
rfoot -33.5954 -2.26295
rtoes -2.39807
lfemur -90.5564 7.82574 -29.0544
ltibia 96.0793
lfoot -31.1494 -9.31109
ltoes 1.10787
1192
root 6.177 11.4471 22.0113 30.568 -72.9202 2.03525
lowerback 14.1533 1.64657 -3.09358
upperback -4.82272 1.74469 1.09174
thorax -13.4916 1.13597 2.51929
lowerneck -32.2894 13.5733 8.99987
upperneck 1.17759 15.2005 -10.9046
head 6.63433 6.25472 -2.77888
rclavicle -8.15017e-015 -1.63003e-014
rhumerus 1.73218 27.3056 -82.0852
rradius 40.2671
rwrist -0.0180872
rhand -17.8472 -18.4058
rfingers 7.12502
rthumb 8.4178 -48.218
lclavicle -8.15017e-015 -1.63003e-014
lhumerus 1.23423 -20.6177 77.7567
lradius 54.1396
lwrist 36.4992
lhand -27.2158 -3.95187
lfingers 7.12502
lthumb -0.628471 26.0269
rfemur -94.8551 -6.13407 24.8705
rtibia 100.808
rfoot -33.304 -2.52519
rtoes -2.34207
lfemur -89.7666 7.54312 -28.9526
ltibia 94.6699
lfoot -31.022 -8.85033
ltoes 0.835542
1193
root 6.17173 11.5608 22.0233 30.7467 -73.0065 2.07994
lowerback 13.4537 1.64241 -3.08521
upperback -4.98715 1.75489 1.06095
thorax -13.2547 1.13718 2.48776
lowerneck -32.1896 13.522 9.06113
upperneck 1.49091 15.1469 -10.7942
head 6.71638 6.2419 -2.75534
rclavicle -6.50026e-014 -5.68524e-014
rhumerus 1.0078 26.9657 -82.0928
rradius 39.8242
rwrist -0.576406
rhand -17.9564 -18.4013
rfingers 7.12502
rthumb 8.31245 -48.2178
lclavicle -6.50026e-014 -5.68524e-014
lhumerus -0.00610423 -20.884 77.8675
lradius 53.9878
lwrist 36.199
lhand -27.1229 -4.1158
lfingers 7.12502
lthumb -0.538774 25.8633
rfemur -94.2023 -5.87093 24.6248
rtibia 99.5564
rfoot -32.9913 -2.75991
rtoes -2.2656
lfemur -88.9692 7.28287 -28.8504
ltibia 93.2421
lfoot -30.8623 -8.41075
ltoes 0.636626
1194
root 6.16592 11.6758 22.0356 30.9498 -73.0982 2.09604
lowerback 12.7509 1.64277 -3.08088
upperback -5.14956 1.77121 1.03981
thorax -13.0138 1.14191 2.46843
lowerneck -32.0907 13.4643 9.10346
upperneck 1.80821 15.092 -10.6839
head 6.79873 6.22841 -2.7293
rclavicle -2.34566e-014 -8.50798e-014
rhumerus 0.260244 26.6361 -82.0853
rradius 39.3707
rwrist -1.13339
rhand -18.095 -18.3782
rfingers 7.12502
rthumb 8.17869 -48.1999
lclavicle -2.34566e-014 -8.50798e-014
lhumerus -1.25332 -21.1452 78.0177
lradius 53.7251
lwrist 35.9446
lhand -27.0551 -4.26101
lfingers 7.12502
lthumb -0.473323 25.7182
rfemur -93.5374 -5.61229 24.3918
rtibia 98.2813
rfoot -32.6598 -2.9679
rtoes -2.16175
lfemur -88.1647 7.04211 -28.7471
ltibia 91.7959
lfoot -30.6708 -7.99165
ltoes 0.519352
1195
root 6.15957 11.7921 22.0482 31.1721 -73.1941 2.09084
lowerback 12.0439 1.64604 -3.08159
upperback -5.31081 1.79113 1.02676
thorax -12.7692 1.14899 2.46077
lowerneck -31.9896 13.4015 9.1305
upperneck 2.12739 15.0361 -10.5729
head 6.8805 6.21455 -2.70115
rclavicle 3.37934e-015 3.10104e-014
rhumerus -0.510525 26.3118 -82.068
rradius 38.9066
rwrist -1.67511
rhand -18.2526 -18.3305
rfingers 7.12502
rthumb 8.02652 -48.1581
lclavicle 3.37934e-015 3.10104e-014
lhumerus -2.50713 -21.392 78.2072
lradius 53.3524
lwrist 35.7425
lhand -26.9987 -4.37415
lfingers 7.12502
lthumb -0.418818 25.6052
rfemur -92.8629 -5.35978 24.1708
rtibia 96.9835
rfoot -32.3114 -3.15448
rtoes -2.0345
lfemur -87.3538 6.81653 -28.6435
ltibia 90.3303
lfoot -30.448 -7.59122
ltoes 0.476488
1196
root 6.15265 11.9093 22.061 31.411 -73.2931 2.07044
lowerback 11.3287 1.64975 -3.08587
upperback -5.47169 1.81135 1.01888
thorax -12.5192 1.15654 2.46158
lowerneck -31.8257 13.3402 9.18001
upperneck 2.39205 14.9828 -10.5028
head 6.96023 6.20086 -2.67224
rclavicle 4.37326e-015 -4.45278e-014
rhumerus -1.30241 25.9837 -82.0492
rradius 38.4312
rwrist -2.18075
rhand -18.411 -18.2591
rfingers 7.12502
rthumb 7.87369 -48.0925
lclavicle 4.37326e-015 -4.45278e-014
lhumerus -3.76548 -21.6088 78.4344
lradius 52.8673
lwrist 35.5895
lhand -26.9424 -4.45015
lfingers 7.12502
lthumb -0.364438 25.5293
rfemur -92.1816 -5.11082 23.9584
rtibia 95.6632
rfoot -31.9463 -3.33243
rtoes -1.90673
lfemur -86.539 6.60085 -28.54
ltibia 88.8441
lfoot -30.1949 -7.20562
ltoes 0.479252
1197
root 6.14512 12.0275 22.0741 31.6644 -73.3947 2.04155
lowerback 10.6007 1.65133 -3.09485
upperback -5.63379 1.82819 1.01487
thorax -12.2624 1.16279 2.47085
lowerneck -31.7066 13.2755 9.19786
upperneck 2.70375 14.9283 -10.3923
head 7.03654 6.18859 -2.64366
rclavicle 2.78299e-014 -1.11319e-014
rhumerus -2.11362 25.6418 -82.0364
rradius 37.9432
rwrist -2.62704
rhand -18.5453 -18.1713
rfingers 7.12502
rthumb 7.74403 -48.0095
lclavicle 2.78299e-014 -1.11319e-014
lhumerus -5.02801 -21.7755 78.6983
lradius 52.2676
lwrist 35.4751
lhand -26.8731 -4.48873
lfingers 7.12502
lthumb -0.297565 25.4908
rfemur -91.4969 -4.86064 23.749
rtibia 94.3193
rfoot -31.5637 -3.51805
rtoes -1.81517
lfemur -85.7233 6.38995 -28.4377
ltibia 87.3357
lfoot -29.9123 -6.83107
ltoes 0.494569
1198
root 6.1369 12.1466 22.0876 31.9346 -73.5004 2.0058
lowerback 9.85422 1.6495 -3.10855
upperback -5.79792 1.8398 1.01193
thorax -11.9964 1.16665 2.4859
lowerneck -31.5714 13.2144 9.22274
upperneck 3.00523 14.8763 -10.2846
head 7.10838 6.17824 -2.61727
rclavicle -2.28602e-014 2.78299e-014
rhumerus -2.94186 25.2755 -82.0359
rradius 37.4437
rwrist -2.99711
rhand -18.6315 -18.074
rfingers 7.12502
rthumb 7.66081 -47.9153
lclavicle -2.28602e-014 2.78299e-014
lhumerus -6.29072 -21.8752 78.9937
lradius 51.5511
lwrist 35.389
lhand -26.7871 -4.49479
lfingers 7.12502
lthumb -0.214415 25.4848
rfemur -90.8112 -4.6 23.5357
rtibia 92.9502
rfoot -31.1617 -3.72315
rtoes -1.78672
lfemur -84.9096 6.18287 -28.3368
ltibia 85.8039
lfoot -29.601 -6.46547
ltoes 0.495002
1199
root 6.1279 12.2666 22.1011 32.2248 -73.6126 1.96239
lowerback 9.08673 1.64444 -3.12995
upperback -5.96505 1.84602 1.00934
thorax -11.721 1.16819 2.50759
lowerneck -31.418 13.1585 9.25912
upperneck 3.29483 14.8278 -10.1811
head 7.17529 6.17028 -2.59402
rclavicle -3.99557e-014 -2.5842e-014
rhumerus -3.78674 24.8763 -82.0495
rradius 36.9346
rwrist -3.28118
rhand -18.6508 -17.9755
rfingers 7.12502
rthumb 7.64224 -47.8175
lclavicle -3.99557e-014 -2.5842e-014
lhumerus -7.55202 -21.9028 79.3141
lradius 50.7221
lwrist 35.3314
lhand -26.689 -4.47346
lfingers 7.12502
lthumb -0.119676 25.5062
rfemur -90.1246 -4.31949 23.3122
rtibia 91.5539
rfoot -30.7381 -3.95674
rtoes -1.84357
lfemur -84.0991 5.98135 -28.2377
ltibia 84.2472
lfoot -29.2624 -6.10665
ltoes 0.460781
1200
root 6.11795 12.3876 22.1146 32.5394 -73.7347 1.90631
lowerback 8.29917 1.63759 -3.16304
upperback -6.13553 1.84839 1.00723
thorax -11.4374 1.16841 2.53782
lowerneck -31.2463 13.1081 9.30752
upperneck 3.57219 14.7828 -10.0816
head 7.23717 6.16482 -2.57401
rclavicle -9.34288e-015 2.14687e-014
rhumerus -4.64932 24.4427 -82.0746
rradius 36.421
rwrist -3.48228
rhand -18.596 -17.8812
rfingers 7.12502
rthumb 7.69513 -47.7212
lclavicle -9.34288e-015 2.14687e-014
lhumerus -8.81024 -21.861 79.6529
lradius 49.7883
lwrist 35.3094
lhand -26.5924 -4.42966
lfingers 7.12502
lthumb -0.0264361 25.5501
rfemur -89.4347 -4.01069 23.0743
rtibia 90.1281
rfoot -30.2911 -4.21873
rtoes -1.98485
lfemur -83.2897 5.79104 -28.14
ltibia 82.6643
lfoot -28.8981 -5.75337
ltoes 0.380305
1201
root 6.10691 12.5098 22.1277 32.8792 -73.8688 1.83213
lowerback 7.49735 1.63115 -3.21012
upperback -6.30828 1.84974 1.0056
thorax -11.1486 1.16882 2.57719
lowerneck -31.0599 13.0618 9.36393
upperneck 3.83937 14.7406 -9.98348
head 7.29448 6.16147 -2.55578
rclavicle 2.46493e-014 -6.91771e-014
rhumerus -5.53074 23.9763 -82.1056
rradius 35.9088
rwrist -3.61216
rhand -18.4712 -17.7944
rfingers 7.12502
rthumb 7.81554 -47.6299
lclavicle 2.46493e-014 -6.91771e-014
lhumerus -10.0653 -21.7775 79.9993
lradius 48.7684
lwrist 35.3502
lhand -26.5221 -4.36329
lfingers 7.12502
lthumb 0.0414406 25.6164
rfemur -88.7349 -3.6697 22.8205
rtibia 88.6706
rfoot -29.8201 -4.50302
rtoes -2.1938
lfemur -82.4747 5.6177 -28.0427
ltibia 81.0533
lfoot -28.51 -5.40229
ltoes 0.236819
1202
root 6.09468 12.6332 22.1402 33.2391 -74.0143 1.73593
lowerback 6.69355 1.62635 -3.27086
upperback -6.48162 1.85191 1.00521
thorax -10.8605 1.17036 2.62572
lowerneck -30.8625 13.0179 9.42362
upperneck 4.0997 14.7003 -9.88402
head 7.34817 6.15986 -2.53777
rclavicle 7.55382e-015 -5.48646e-014
rhumerus -6.43252 23.4827 -82.136
rradius 35.4037
rwrist -3.68461
rhand -18.2893 -17.7143
rfingers 7.12502
rthumb 7.99108 -47.5432
lclavicle 7.55382e-015 -5.48646e-014
lhumerus -11.32 -21.6832 80.3469
lradius 47.683
lwrist 35.4852
lhand -26.5044 -4.27222
lfingers 7.12502
lthumb 0.0585835 25.7075
rfemur -88.0138 -3.29809 22.5517
rtibia 87.1797
rfoot -29.3258 -4.80386
rtoes -2.45268
lfemur -81.6419 5.46429 -27.944
ltibia 79.4113
lfoot -28.0994 -5.05072
ltoes 0.0154923
1203
root 6.08125 12.7579 22.1523 33.606 -74.1679 1.6178
lowerback 5.90524 1.62349 -3.34113
upperback -6.65276 1.8557 1.0061
thorax -10.5804 1.17317 2.68069
lowerneck -30.6586 12.9745 9.48078
upperneck 4.35797 14.6608 -9.77829
head 7.3995 6.15958 -2.51752
rclavicle -3.3197e-014 -1.86858e-014
rhumerus -7.35448 22.9655 -82.1606
rradius 34.9085
rwrist -3.7094
rhand -18.0663 -17.6381
rfingers 7.12502
rthumb 8.20634 -47.4587
lclavicle -3.3197e-014 -1.86858e-014
lhumerus -12.5776 -21.6078 80.6917
lradius 46.5513
lwrist 35.7367
lhand -26.552 -4.1523
lfingers 7.12502
lthumb 0.0126508 25.8274
rfemur -87.2557 -2.90299 22.2708
rtibia 85.6537
rfoot -28.8104 -5.11481
rtoes -2.74062
lfemur -80.7739 5.32934 -27.8413
ltibia 77.7346
lfoot -27.6666 -4.69586
ltoes -0.297814
1204
root 6.0667 12.8839 22.1642 33.9628 -74.3238 1.47898
lowerback 5.15312 1.62197 -3.41237
upperback -6.81822 1.86088 1.00773
thorax -10.3166 1.17663 2.73636
lowerneck -30.4522 12.9305 9.5356
upperneck 4.61897 14.6207 -9.66693
head 7.45057 6.15969 -2.4953
rclavicle 3.24019e-014 -6.36111e-015
rhumerus -8.29563 22.4292 -82.1751
rradius 34.426
rwrist -3.69292
rhand -17.8167 -17.5593
rfingers 7.12502
rthumb 8.44724 -47.3704
lclavicle 3.24019e-014 -6.36111e-015
lhumerus -13.8398 -21.5655 81.0342
lradius 45.3854
lwrist 36.112
lhand -26.6688 -4.0049
lfingers 7.12502
lthumb -0.10017 25.9748
rfemur -86.4418 -2.49344 21.9809
rtibia 84.0916
rfoot -28.2769 -5.43205
rtoes -3.04136
lfemur -79.851 5.20754 -27.7305
ltibia 76.0194
lfoot -27.2108 -4.33609
ltoes -0.711284
1205
root 6.05117 13.011 22.1761 34.2907 -74.4755 1.32368
lowerback 4.45706 1.6205 -3.4758
upperback -6.97531 1.86605 1.00984
thorax -10.0775 1.17957 2.7873
lowerneck -30.2456 12.8853 9.58929
upperneck 4.8875 14.579 -9.55022
head 7.5034 6.15957 -2.47134
rclavicle 1.15295e-014 1.86858e-014
rhumerus -9.25522 21.8779 -82.1763
rradius 33.9581
rwrist -3.63781
rhand -17.5513 -17.4727
rfingers 7.12502
rthumb 8.70336 -47.2733
lclavicle 1.15295e-014 1.86858e-014
lhumerus -15.1069 -21.5502 81.3774
lradius 44.1891
lwrist 36.5924
lhand -26.8354 -3.83289
lfingers 7.12502
lthumb -0.261066 26.1467
rfemur -85.5551 -2.07883 21.685
rtibia 82.4933
rfoot -27.7288 -5.75375
rtoes -3.35003
lfemur -78.8552 5.09025 -27.6071
ltibia 74.2625
lfoot -26.7305 -3.97085
ltoes -1.21508
